name E:\Dropbox\SEL\BOX\Experiment\240124_SUB1_PJH\c3d\XYZ\UpDown_TrcMot\15_10_trial2_U1_ExtLoadAPP1.mot
datacolumns 37
datarows 9
range 2.613 2.621
endheader

time	    ground_force1_vx	    ground_force1_vy	    ground_force1_vz	    ground_force1_px	    ground_force1_py	    ground_force1_pz	    ground_torque1_x	    ground_torque1_y	    ground_torque1_z	    ground_force2_vx	    ground_force2_vy	    ground_force2_vz	    ground_force2_px	    ground_force2_py	    ground_force2_pz	    ground_torque2_x	    ground_torque2_y	    ground_torque2_z	      hand_force3_vx	      hand_force3_vy	      hand_force3_vz	      hand_force3_px	      hand_force3_py	      hand_force3_pz	      hand_torque3_x	      hand_torque3_y	      hand_torque3_z	      hand_force4_vx	      hand_force4_vy	      hand_force4_vz	      hand_force4_px	      hand_force4_py	      hand_force4_pz	      hand_torque4_x	      hand_torque4_y	      hand_torque4_z	
2.613	         46.62125765	        400.06733118	         12.93015366	          0.22380263	          0.00000000	          0.19793430	          0.00000000	         -2.34039750	          0.00000000	        -53.70119393	        451.44741867	         15.46531267	          0.57650007	          0.00000000	          0.18748745	          0.00000000	          1.39688456	          0.00000000	         -8.97625557	        -57.68992484	          2.04957935	          0.20095045	          1.02428865	         -0.22227051	          0.00812351	         -0.92048654	         -0.12791661	          7.05734520	        -57.36875451	          0.42822618	          0.59615325	          1.02428865	         -0.20603672	         -0.00276019	          0.32805040	          0.04597810	
2.614	         46.57985427	        399.64295670	         13.02768900	          0.22377242	          0.00000000	          0.19735046	          0.00000000	         -2.30912002	          0.00000000	        -53.69262512	        451.36438952	         15.40238207	          0.57646612	          0.00000000	          0.18727015	          0.00000000	          1.36928921	          0.00000000	         -8.90583930	        -57.73603555	          1.92932631	          0.20085872	          1.02422703	         -0.22295075	          0.00821902	         -0.91734654	         -0.12724007	          6.94668209	        -57.41101075	          0.35550685	          0.59611086	          1.02422703	         -0.20671027	         -0.00278869	          0.32536912	          0.04551245	
2.615	         46.53762065	        399.22096566	         13.11983579	          0.22374294	          0.00000000	          0.19677418	          0.00000000	         -2.27815385	          0.00000000	        -53.68044813	        451.27420530	         15.33577642	          0.57643228	          0.00000000	          0.18705614	          0.00000000	          1.34227663	          0.00000000	         -8.83573754	        -57.78401843	          1.80436703	          0.20076793	          1.02416330	         -0.22363099	          0.00831229	         -0.91428695	         -0.12657409	          6.83635641	        -57.45597463	          0.28006325	          0.59606953	          1.02416330	         -0.20738535	         -0.00281741	          0.32282609	          0.04506477	
2.616	         46.49458939	        398.80202331	         13.20650602	          0.22371422	          0.00000000	          0.19620567	          0.00000000	         -2.24750403	          0.00000000	        -53.66464724	        451.17703558	         15.26549420	          0.57639858	          0.00000000	          0.18684544	          0.00000000	          1.31585687	          0.00000000	         -8.76592105	        -57.83375348	          1.67478468	          0.20067828	          1.02409748	         -0.22431129	          0.00840326	         -0.91129738	         -0.12591739	          6.72641053	        -57.50359034	          0.20187351	          0.59602920	          1.02409748	         -0.20806199	         -0.00284639	          0.32042312	          0.04463533	
2.617	         46.45079161	        398.38678067	         13.28762219	          0.22368625	          0.00000000	          0.19564515	          0.00000000	         -2.21717503	          0.00000000	        -53.64521665	        451.07306621	         15.19153789	          0.57636502	          0.00000000	          0.18663808	          0.00000000	          1.29003854	          0.00000000	         -8.69635958	        -57.88512137	          1.54067143	          0.20059001	          1.02402958	         -0.22499170	          0.00849190	         -0.90836751	         -0.12526871	          6.61688566	        -57.55379574	          0.12092096	          0.59598986	          1.02402958	         -0.20874023	         -0.00287568	          0.31816171	          0.04422436	
2.618	         46.40625691	        397.97587262	         13.36311759	          0.22365905	          0.00000000	          0.19509280	          0.00000000	         -2.18717077	          0.00000000	        -53.62216046	        450.96249904	         15.11391391	          0.57633161	          0.00000000	          0.18643406	          0.00000000	          1.26482880	          0.00000000	         -8.62702213	        -57.93800398	          1.40212793	          0.20050330	          1.02395960	         -0.22567227	          0.00857816	         -0.90548712	         -0.12462678	          6.50782195	        -57.60652251	          0.03719418	          0.59595146	          1.02395960	         -0.20942007	         -0.00290533	          0.31604311	          0.04383205	
2.619	         46.36101328	        397.56991615	         13.43293634	          0.22363262	          0.00000000	          0.19454879	          0.00000000	         -2.15749463	          0.00000000	        -53.59549262	        450.84555144	         15.03263240	          0.57629838	          0.00000000	          0.18623340	          0.00000000	          1.24023333	          0.00000000	         -8.55787717	        -57.99228510	          1.25926261	          0.20041837	          1.02388756	         -0.22635306	          0.00866202	         -0.90264617	         -0.12399035	          6.39925858	        -57.66169634	         -0.04931285	          0.59591396	          1.02388756	         -0.21010155	         -0.00293535	          0.31406825	          0.04345856	
2.62	         46.31508711	        397.16950859	         13.49703346	          0.22360698	          0.00000000	          0.19401331	          0.00000000	         -2.12814943	          0.00000000	        -53.56523683	        450.72245583	         14.94770708	          0.57626533	          0.00000000	          0.18603612	          0.00000000	          1.21625635	          0.00000000	         -8.48889290	        -58.04785091	          1.11219104	          0.20033538	          1.02381346	         -0.22703411	          0.00874342	         -0.89983485	         -0.12335820	          6.29123385	        -57.71923713	         -0.13860066	          0.59587734	          1.02381346	         -0.21078469	         -0.00296581	          0.31223782	          0.04310397	
2.621	         46.26850318	        396.77522611	         13.55537496	          0.22358212	          0.00000000	          0.19348648	          0.00000000	         -2.09913744	          0.00000000	        -53.53142642	        450.59345912	         14.85915504	          0.57623249	          0.00000000	          0.18584223	          0.00000000	          1.19290063	          0.00000000	         -8.42003747	        -58.10459058	          0.96103524	          0.20025453	          1.02373733	         -0.22771549	          0.00882236	         -0.89704360	         -0.12272913	          6.18378532	        -57.77905922	         -0.23066428	          0.59584154	          1.02373733	         -0.21146947	         -0.00299672	          0.31055222	          0.04276837	
